{"title":"Wuthering.High.School.2015.BRRip.x264-MenaceIISociety","uid":12118470,"size":792480557,"categoryP":"video","categoryS":"movies","magnet":"?xt=urn:btih:6f812eff2fbbfe161578a416bf3a81f68a184983&amp;dn=Wuthering.High.School.2015.BRRip.x264-MenaceIISociety&amp;tr=udp%3A%2F%2Ftracker.openbittorrent.com%3A80&amp;tr=udp%3A%2F%2Fopen.demonii.com%3A1337&amp;tr=udp%3A%2F%2Ftracker.coppersurfer.tk%3A6969&amp;tr=udp%3A%2F%2Fexodus.desync.com%3A6969","seeders":1,"leechers":1,"uploader":"xxxlavalxxx","files":4,"time":1436781683,"description":" &lt;a href=&quot;http://extraimago.com/image/1n3&quot; rel=&quot;nofollow&quot; target=&quot;_NEW&quot;&gt;http://extraimago.com/image/1n3&lt;/a&gt;\n &lt;a href=&quot;\nhttp://www.imdb.com/title/tt4296254/&quot; rel=&quot;nofollow&quot; target=&quot;_NEW&quot;&gt;\nhttp://www.imdb.com/title/tt4296254/&lt;/a&gt;\n\n\nAn updated 21st century version of the Emily Bronte novel set in modern day Malibu, California where the wealthy Earnshaw family adopts Heath, a troubled teenager. The Earnshaws teenage daughter, Cathy, falls madly in love with him, embittering her rich boyfriend, Eddie, and the rest of their exclusive, upscale community. Wrapped up in her exciting fling, Cathy is blind to the dangerous side of Heath until it's too late.\n\nDirector: Anthony DiBlasi\nWriter: Delondra Williams (screenplay)\nStars: Paloma Kwiatkowski, Andrew Jacobs, Matthew Boehm\nGenres: Drama\nCountry: USA\nLanguage: English\n\n\nSource: DL.720p.BluRay.x264-LizardSquad [THANKS]\n\nGeneral\nComplete name: Wuthering.High.School.2015.BRRip.x264-MenaceIISociety.mp4\nFormat: MPEG-4\nFormat profile: Base Media\nCodec ID: isom\nFile size: 741 MiB\nDuration: 1h 27mn\nOverall bit rate mode: Variable\nOverall bit rate: 1 183 Kbps\nEncoded date: UTC 2015-07-12 23:24:58\nTagged date: UTC 2015-07-12 23:24:58\n\nVideo\nID: 1\nFormat: AVC\nFormat/Info: Advanced Video Codec\nFormat profile: &lt;a class=&quot;__cf_email__&quot; href=&quot;/cdn-cgi/l/email-protection&quot; data-cfemail=&quot;9ed6f7f9f6ded2aab0af&quot;&gt;[email&amp;#160;protected]&lt;/a&gt;&lt;script data-cfhash='f9e31' type=&quot;text/javascript&quot;&gt;\n/* &lt;![CDATA[ */!function(){try{var t=&quot;currentScript&quot;in document?document.currentScript:function(){for(var t=document.getElementsByTagName(&quot;script&quot;),e=t.length;e--;)if(t[e].getAttribute(&quot;data-cfhash&quot;))return t[e]}();if(t&amp;&amp;t.previousSibling){var e,r,n,i,c=t.previousSibling,a=c.getAttribute(&quot;data-cfemail&quot;);if(a){for(e=&quot;&quot;,r=parseInt(a.substr(0,2),16),n=2;a.length-n;n+=2)i=parseInt(a.substr(n,2),16)^r,e+=String.fromCharCode(i);e=document.createTextNode(e),c.parentNode.replaceChild(e,c)}t.parentNode.removeChild(t);}}catch(u){}}()/* ]]&gt; */&lt;/script&gt;\nFormat settings, CABAC: Yes\nFormat settings, ReFrames: 3 frames\nCodec ID: avc1\nCodec ID/Info: Advanced Video Coding\nDuration: 1h 27mn\nBit rate mode: Variable\nBit rate: 836 Kbps\nMaximum bit rate: 40.0 Mbps\nWidth: 720 pixels\nHeight: 400 pixels\nDisplay aspect ratio: 16:9\nFrame rate mode: Constant\nFrame rate: 23.976 fps\nColor space: YUV\nChroma subsampling: 4:2:0\nBit depth: 8 bits\nScan type: Progressive\nBits/(Pixel*Frame): 0.121\nStream size: 524 MiB (71%)\nWriting library: x264 core 146 r2538 121396c\n\nAudio\nID: 2\nFormat: AAC\nFormat/Info: Advanced Audio Codec\nFormat profile: LC\nCodec ID: 40\nDuration: 1h 27mn\nBit rate mode: Variable\nBit rate: 343 Kbps\nMaximum bit rate: 388 Kbps\nChannel(s): 6 channels\nChannel positions: Front: L C R, Side: L R, LFE\nSampling rate: 48.0 KHz\nCompression mode: Lossy\nStream size: 215 MiB (29%)\nLanguage: English\nEncoded date: UTC 2015-07-12 22:10:36\nTagged date: UTC 2015-07-12 23:29:44 \n\n &lt;a href=&quot;\nhttp://extraimago.com/image/1n9&quot; rel=&quot;nofollow&quot; target=&quot;_NEW&quot;&gt;\nhttp://extraimago.com/image/1n9&lt;/a&gt; &lt;a href=&quot;\nhttp://extraimago.com/image/1nM&quot; rel=&quot;nofollow&quot; target=&quot;_NEW&quot;&gt;\nhttp://extraimago.com/image/1nM&lt;/a&gt; &lt;a href=&quot;\nhttp://extraimago.com/image/1nU&quot; rel=&quot;nofollow&quot; target=&quot;_NEW&quot;&gt;\nhttp://extraimago.com/image/1nU&lt;/a&gt; &lt;a href=&quot;\nhttp://extraimago.com/image/1nz&quot; rel=&quot;nofollow&quot; target=&quot;_NEW&quot;&gt;\nhttp://extraimago.com/image/1nz&lt;/a&gt; &lt;a href=&quot;\nhttp://extraimago.com/image/1n0&quot; rel=&quot;nofollow&quot; target=&quot;_NEW&quot;&gt;\nhttp://extraimago.com/image/1n0&lt;/a&gt;","torrent":{"xt":"urn:btih:6f812eff2fbbfe161578a416bf3a81f68a184983","amp;dn":"Wuthering.High.School.2015.BRRip.x264-MenaceIISociety","amp;tr":["udp%3A%2F%2Ftracker.openbittorrent.com%3A80","udp%3A%2F%2Fopen.demonii.com%3A1337","udp%3A%2F%2Ftracker.coppersurfer.tk%3A6969","udp%3A%2F%2Fexodus.desync.com%3A6969"],"infoHash":"6f812eff2fbbfe161578a416bf3a81f68a184983","infoHashBuffer":{"type":"Buffer","data":[111,129,46,255,47,187,254,22,21,120,164,22,191,58,129,246,138,24,73,131]},"announce":[],"urlList":[]}}